PathFileType	4	(X/Y/Z)	c:/Users/goper/Files/vsCode/490R/osim_files/A03/A03_Static02.trc
DataRate	CameraRate	NumFrames	NumMarkers	Units                	OrigDataRate	OrigDataStartFrame	OrigNumFrames
250.00	250.00	6	36	mm	250.0	557	2227
                Frame#	Time	LPSIS			LASIS			LTH1			LTH2			LTH3			LTH4			LLFE			LMFE			LSH1			LSH2			LSH3			LSH4			LLMAL			LMMAL			LCAL			LMTP5			LTOE			LMTP1			RPSIS			RASIS			RTH1			RTH2			RTH3			RTH4			RLFE			RMFE			RSH1			RSH2			RSH3			RSH4			RLMAL			RMMAL			RCAL			RMTP1			RTOE			RMTP5		
		X1	Y1	Z1	X2	Y2	Z2	X3	Y3	Z3	X4	Y4	Z4	X5	Y5	Z5	X6	Y6	Z6	X7	Y7	Z7	X8	Y8	Z8	X9	Y9	Z9	X10	Y10	Z10	X11	Y11	Z11	X12	Y12	Z12	X13	Y13	Z13	X14	Y14	Z14	X15	Y15	Z15	X16	Y16	Z16	X17	Y17	Z17	X18	Y18	Z18	X19	Y19	Z19	X20	Y20	Z20	X21	Y21	Z21	X22	Y22	Z22	X23	Y23	Z23	X24	Y24	Z24	X25	Y25	Z25	X26	Y26	Z26	X27	Y27	Z27	X28	Y28	Z28	X29	Y29	Z29	X30	Y30	Z30	X31	Y31	Z31	X32	Y32	Z32	X33	Y33	Z33	X34	Y34	Z34	X35	Y35	Z35	X36	Y36	Z36

557	2.22400	-350.23810	1057.95117	406.24496	-102.61009	987.03015	299.79984	-176.70107	645.60675	229.43076	-165.79453	603.71942	225.66980	-113.76683	651.67682	239.48425	-114.40361	607.83771	236.58888	-173.30328	557.87366	232.05022	-127.75182	528.92029	379.72336	-230.82515	478.24585	234.01215	-236.67470	430.08682	230.88974	-170.35953	463.53345	225.74234	-185.38138	418.46555	227.63043	-287.23999	104.44097	231.66414	-256.59225	104.72898	321.38141	-346.60986	86.68179	297.82724	-148.26852	41.59826	182.71321	-102.64062	68.10027	243.84538	-122.34867	47.77843	294.14948	-356.82950	1063.72974	486.93314	-118.14713	987.60571	602.87329	-214.86052	634.16382	672.05823	-208.71933	589.87939	668.29987	-153.22778	636.51019	676.27716	-154.36726	591.73474	671.79102	-188.85429	546.13617	660.80261	-130.06363	539.62720	548.32831	-247.84015	486.00558	656.00348	-257.84052	447.58536	671.15393	-189.79773	471.19940	672.10895	-207.81329	430.42639	684.61768	-286.28229	129.92587	661.29810	-242.72632	129.02489	587.01025	0.00000	0.00000	0.00000	-121.66127	47.43463	595.92188	-99.49599	70.07343	648.63202	-142.41560	42.11808	713.21942
558	2.22800	-350.24887	1057.94568	406.21539	-102.57256	987.02087	299.80054	-176.64740	645.61334	229.43274	-165.76060	603.72412	225.66306	-113.75401	651.65308	239.48135	-114.37688	607.82550	236.59117	-173.28642	557.86127	232.05431	-127.73247	528.93213	379.72302	-230.76685	478.25375	233.97273	-236.67258	430.09314	230.90762	-170.36552	463.51004	225.73633	-185.37515	418.47867	227.62309	-287.04123	104.38474	231.82397	-256.61584	104.73151	321.35297	-346.59232	86.68828	297.82300	-148.24670	41.61095	182.69588	-102.33625	68.32722	243.69559	-122.35129	47.78140	294.13904	-356.77756	1063.74438	486.93851	-118.10059	987.64490	602.88312	-214.82681	634.16071	672.03571	-208.71593	589.89618	668.27771	-153.21347	636.50610	676.25360	-154.35104	591.73932	671.76318	-188.86449	546.14386	660.77661	-130.06769	539.61835	548.32941	-247.84630	486.02200	655.98926	-257.84918	447.59030	671.12073	-189.79347	471.22580	672.10254	-207.79918	430.42517	684.63397	-286.27356	129.92943	661.27594	-242.70807	129.01601	587.01190	0.00000	0.00000	0.00000	-121.66036	47.43321	595.90521	-99.47399	70.08119	648.60986	-142.41750	42.11760	713.20764
559	2.23200	-350.20230	1057.97913	406.21869	-102.56213	987.01660	299.78622	-176.66562	645.59528	229.43683	-165.74893	603.72583	225.65952	-113.71029	651.65320	239.47464	-114.33822	607.84216	236.58437	-173.26520	557.86316	232.04662	-127.72609	528.92896	379.72440	-230.76524	478.25320	233.97047	-236.64267	430.08209	230.88887	-170.34697	463.51572	225.73314	-185.36584	418.45746	227.62914	-287.24243	104.46152	231.69109	-256.60181	104.73457	321.37006	-346.59283	86.67729	297.82626	-148.25787	41.60135	182.71109	-102.17601	68.35138	243.72176	-122.35457	47.78164	294.11441	-356.78766	1063.77539	486.93063	-118.05856	987.64136	602.85516	-214.83319	634.17963	672.02435	-208.72501	589.89258	668.25519	-153.18900	636.49176	676.22925	-154.34198	591.73010	671.74500	-188.89833	546.13983	660.75916	-130.05360	539.60358	548.31030	-247.86191	486.02417	655.97723	-257.85074	447.60022	671.11084	-189.77852	471.22141	672.09351	-208.92937	430.02740	684.47998	-286.25766	129.95242	661.28857	-242.71342	129.01192	587.01898	0.00000	0.00000	0.00000	-121.65376	47.44734	595.90778	-99.48298	70.07739	648.61023	-142.39395	42.10835	713.21716
560	2.23600	-350.22256	1057.97119	406.20129	-102.53014	986.99286	299.80066	-176.67882	645.62762	229.44676	-165.73570	603.71606	225.66609	-113.69061	651.65320	239.47168	-114.33127	607.81781	236.57417	-173.25826	557.85687	232.04350	-127.67075	528.92981	379.69965	-230.74310	478.24945	233.97998	-236.63541	430.11136	230.89244	-170.33780	463.51205	225.74258	-185.35905	418.42926	227.62708	-287.24475	104.45309	231.68224	-256.58575	104.72900	321.35382	-346.58118	86.68245	297.81943	-148.25363	41.59821	182.70404	-102.65026	68.06968	243.81026	-122.34487	47.79098	294.13275	-356.77713	1063.77344	486.92752	-117.97897	987.65186	602.86768	-214.81862	634.17920	672.00891	-208.71393	589.88116	668.24774	-153.17836	636.49658	676.22845	-154.32576	591.74292	671.75043	-188.83899	546.13831	660.74719	-130.05801	539.57935	548.32629	-247.83401	486.03198	655.97101	-257.81628	447.60519	671.10016	-189.75861	471.23196	672.08630	-207.76305	430.41891	684.62280	-286.27319	129.94461	661.26855	-242.71492	129.00015	587.02344	0.00000	0.00000	0.00000	-121.65544	47.43386	595.90173	-99.47228	70.07360	648.59656	-142.39023	42.11519	713.19385
561	2.24000	-350.17310	1057.97827	406.17160	-102.49583	986.99432	299.77930	-176.61494	645.61835	229.39957	-165.71358	603.71521	225.64926	-113.68949	651.63660	239.47504	-114.30167	607.81030	236.58087	-173.23734	557.87299	232.04202	-127.67358	528.93066	379.71536	-230.73997	478.25143	233.96428	-236.62926	430.10202	230.88919	-170.32907	463.49805	225.73265	-185.34775	418.45102	227.63100	-287.05194	104.35258	231.81976	-256.56223	104.71288	321.36523	-346.58084	86.65854	297.81387	-148.25099	41.57893	182.70898	-102.21700	68.35246	243.71758	-122.33585	47.77399	294.12680	-356.71732	1063.75879	486.92825	-117.96414	987.64514	602.86511	-214.81778	634.16351	672.00977	-208.68823	589.87634	668.25073	-153.17276	636.49127	676.21747	-154.29469	591.73273	671.73358	-188.81256	546.13892	660.73627	-130.05655	539.60657	548.31537	-247.82291	486.03409	655.98029	-257.77875	447.58618	671.10327	-189.71620	471.21808	672.08453	-208.67821	430.02698	684.49353	-286.24731	129.92532	661.28351	-242.72362	128.98962	587.03528	0.00000	0.00000	0.00000	-121.69515	47.45099	595.93811	-99.45607	70.07201	648.61108	-142.36646	42.10460	713.19519
562	2.24400	-350.15128	1057.97595	406.16006	-102.48038	986.97980	299.79208	-176.60365	645.59814	229.41579	-165.71498	603.71564	225.65431	-113.66402	651.63220	239.47449	-114.31293	607.78650	236.58763	-173.24046	557.86200	232.04323	-127.64487	528.93304	379.71872	-230.71165	478.25192	233.95947	-236.61528	430.08798	230.88068	-170.31277	463.48901	225.72339	-185.34013	418.44647	227.63420	-287.23831	104.45229	231.67291	-256.56769	104.72049	321.35992	-346.56494	86.66566	297.83594	-148.26556	41.59240	182.70578	-102.65733	68.04665	243.80283	-122.33299	47.76854	294.14182	-356.71478	1063.78235	486.91098	-117.91357	987.65625	602.89313	-214.75055	634.15253	672.03088	-208.67532	589.88318	668.25043	-153.16890	636.50336	676.21490	-154.27939	591.74054	671.72626	-188.79825	546.16144	660.73462	-130.05249	539.60004	548.30090	-247.81343	486.03610	655.98187	-257.76630	447.57901	671.12506	-189.72588	471.22391	672.08765	-208.67871	430.04245	684.48505	-286.21625	129.90620	661.28912	-242.70409	129.00883	587.04016	0.00000	0.00000	0.00000	-121.64929	47.42213	595.91656	-99.46790	70.07435	648.62170	-142.37871	42.09457	713.20013
